<svg xmlns="http://www.w3.org/2000/svg" width="449.99999999999994" xmlns:xlink="http://www.w3.org/1999/xlink" viewBox="-0.75 -0.5 1.4999999999999998 1.0" height="300.0"><style>svg {
  color-scheme: light dark;
}
{
  .canvas g, .title g, .axisbar g, .ticktext g, .tickglyph g, .ticklines g, .legendContent g text {
    fill: #0d0d0d;
  }
  .ticklines g, .tickglyph g, .legendBorder g {
    stroke: #0d0d0d;
  }
}
@media (prefers-color-scheme:dark) {
  .canvas g, .title g, .axisbar g, .ticktext g, .tickglyph g, .ticklines g, .legendContent g text {
    fill: #f0f0f0;
  }
  .ticklines g, .tickglyph g, .legendBorder g {
    stroke: #f0f0f0;
  }
}</style><g class="chart"><g class="barchart"><g fill="rgb(69%, 35%, 16%)" stroke="rgb(69%, 35%, 16%)" stroke-width="2.0e-3" fill-opacity="1.0" stroke-opacity="1.0"><rect x="-0.5193665983139666" width="6.835269993164722e-2" y="0.28689192333334124" height="2.4530142343947015e-3"/><rect x="-0.4339257233994075" width="6.835269993164728e-2" y="0.27287469913679985" height="1.647023843093609e-2"/><rect x="-0.3484848484848484" width="6.835269993164728e-2" y="0.22977173473243512" height="5.957320283530082e-2"/><rect x="-0.2630439735702893" width="6.835269993164728e-2" y="0.12324083083872073" height="0.1661041067290152"/><rect x="-0.1776030986557302" width="6.835269993164728e-2" y="-3.5854663792023955e-2" height="0.3251996013597599"/><rect x="-9.216222374117122e-2" width="6.835269993164739e-2" y="-0.23454881677799777" height="0.5238937543457337"/><rect x="-6.721348826612017e-3" width="6.835269993164705e-2" y="-0.3603534039419567" height="0.6496983415096926"/><rect x="7.871952608794719e-2" width="6.835269993164728e-2" y="-0.3694645996697087" height="0.6588095372374446"/><rect x="0.1641604010025064" width="6.835269993164728e-2" y="-0.2510190552089341" height="0.54036399277667"/><rect x="0.2496012759170655" width="6.835269993164739e-2" y="-4.3564137100121636e-2" height="0.3329090746678576"/><rect x="0.3350421508316246" width="6.83526999316475e-2" y="0.13655719382543496" height="0.15278774374230097"/><rect x="0.4204830257461838" width="6.835269993164728e-2" y="0.233626471386484" height="5.5718466181251924e-2"/><rect x="0.5059239006607428" width="6.835269993164728e-2" y="0.27427642155645393" height="1.5068516011282007e-2"/><rect x="0.5913647755753018" width="6.83526999316475e-2" y="0.28408847849403296" height="5.256459073702979e-3"/></g><g fill="rgb(69%, 35%, 16%)" stroke="none" stroke-width="0.0" font-size="3.417634996582364e-3" fill-opacity="1.0" text-anchor="middle"><text x="-0.48519024834814295" y="0.2605395418438434">7.0e-4</text><text x="-0.3997493734335839" y="0.2465223176473021">0.0047</text><text x="-0.31430849851902476" y="0.2034193532429373">0.017</text><text x="-0.22886762360446578" y="9.688844934922286e-2">0.047</text><text x="-0.14342674868990657" y="-6.2207045281521656e-2">0.093</text><text x="-5.798587377534736e-2" y="-0.2609011982674957">0.15</text><text x="2.745500113921162e-2" y="-0.3867057854314545">0.19</text><text x="0.11289587605377083" y="-0.3958169811592064">0.19</text><text x="0.19833675096833003" y="-0.2773714366984318">0.15</text><text x="0.28377762588288924" y="-6.991651858961945e-2">0.095</text><text x="0.36921850079744845" y="0.11020481233593721">0.044</text><text x="0.4546593757120072" y="0.2072740898969862">0.016</text><text x="0.5401002506265664" y="0.24792404006695618">0.0043</text><text x="0.6255411255411256" y="0.25773609700453515">0.0015</text></g></g></g><g class="hud"><g class="axis"><g class="ticks"><g class="tickglyph"><g fill="rgb(94%, 94%, 94%)" stroke="rgb(94%, 94%, 94%)" stroke-width="4.0e-3" fill-opacity="0.4" stroke-opacity="0.4"><g transform="rotate(-90.0, -0.5518341307814991, 0.28934493756773594)"><polyline points="-0.5518341307814991,0.30434493756773595
-0.5518341307814991,0.2743449375677359"/></g><g transform="rotate(-90.0, -0.5518341307814991, 0.2192588165850291)"><polyline points="-0.5518341307814991,0.23425881658502912
-0.5518341307814991,0.2042588165850291"/></g><g transform="rotate(-90.0, -0.5518341307814991, 0.14917269560232221)"><polyline points="-0.5518341307814991,0.16417269560232223
-0.5518341307814991,0.1341726956023222"/></g><g transform="rotate(-90.0, -0.5518341307814991, 7.908657461961544e-2)"><polyline points="-0.5518341307814991,9.408657461961543e-2
-0.5518341307814991,6.408657461961544e-2"/></g><g transform="rotate(-90.0, -0.5518341307814991, 9.00045363690849e-3)"><polyline points="-0.5518341307814991,2.400045363690849e-2
-0.5518341307814991,-5.99954636309151e-3"/></g><g transform="rotate(-90.0, -0.5518341307814991, -6.1085667345798345e-2)"><polyline points="-0.5518341307814991,-4.6085667345798345e-2
-0.5518341307814991,-7.608566734579834e-2"/></g><g transform="rotate(-90.0, -0.5518341307814991, -0.13117178832850518)"><polyline points="-0.5518341307814991,-0.11617178832850518
-0.5518341307814991,-0.1461717883285052"/></g><g transform="rotate(-90.0, -0.5518341307814991, -0.20125790931121212)"><polyline points="-0.5518341307814991,-0.1862579093112121
-0.5518341307814991,-0.21625790931121214"/></g><g transform="rotate(-90.0, -0.5518341307814991, -0.27134403029391896)"><polyline points="-0.5518341307814991,-0.25634403029391895
-0.5518341307814991,-0.28634403029391897"/></g><g transform="rotate(-90.0, -0.5518341307814991, -0.34143015127662557)"><polyline points="-0.5518341307814991,-0.32643015127662556
-0.5518341307814991,-0.3564301512766256"/></g><g transform="rotate(-90.0, -0.5518341307814991, -0.4115162722593325)"><polyline points="-0.5518341307814991,-0.3965162722593325
-0.5518341307814991,-0.42651627225933253"/></g></g></g><g class="ticktext"><g fill="rgb(94%, 94%, 94%)" stroke="none" stroke-width="0.0" font-size="3.987240829346092e-2" fill-opacity="1.0" text-anchor="end"><text x="-0.580542264752791" y="0.2989817792028582">0.0</text><text x="-0.580542264752791" y="0.2288956582201513">0.020</text><text x="-0.580542264752791" y="0.1588095372374444">0.040</text><text x="-0.580542264752791" y="8.872341625473756e-2">0.060</text><text x="-0.580542264752791" y="1.863729527203073e-2">0.080</text><text x="-0.580542264752791" y="-5.1448825710676105e-2">0.10</text><text x="-0.580542264752791" y="-0.12153494669338294">0.12</text><text x="-0.580542264752791" y="-0.19162106767608988">0.14</text><text x="-0.580542264752791" y="-0.2617071886587967">0.16</text><text x="-0.580542264752791" y="-0.33179330964150344">0.18</text><text x="-0.580542264752791" y="-0.4018794306242104">0.20</text></g></g><g class="ticklines"><g fill="none" stroke="rgb(94%, 94%, 94%)" stroke-width="5.0e-3" stroke-opacity="5.0e-2"><polyline points="-0.5279106858054226,0.28934493756773594
0.668261562998405,0.28934493756773594"/><polyline points="-0.5279106858054226,0.2192588165850291
0.668261562998405,0.2192588165850291"/><polyline points="-0.5279106858054226,0.14917269560232221
0.668261562998405,0.14917269560232221"/><polyline points="-0.5279106858054226,7.908657461961544e-2
0.668261562998405,7.908657461961544e-2"/><polyline points="-0.5279106858054226,9.00045363690849e-3
0.668261562998405,9.00045363690849e-3"/><polyline points="-0.5279106858054226,-6.1085667345798345e-2
0.668261562998405,-6.1085667345798345e-2"/><polyline points="-0.5279106858054226,-0.13117178832850518
0.668261562998405,-0.13117178832850518"/><polyline points="-0.5279106858054226,-0.20125790931121212
0.668261562998405,-0.20125790931121212"/><polyline points="-0.5279106858054226,-0.27134403029391896
0.668261562998405,-0.27134403029391896"/><polyline points="-0.5279106858054226,-0.34143015127662557
0.668261562998405,-0.34143015127662557"/><polyline points="-0.5279106858054226,-0.4115162722593325
0.668261562998405,-0.4115162722593325"/></g></g></g><g class="axisbar"><g fill="rgb(94%, 94%, 94%)" stroke="rgb(0%, 0%, 0%)" stroke-width="0.0" fill-opacity="0.4" stroke-opacity="0.0"><rect x="-0.5390749601275916" width="3.1897926634768536e-3" y="-0.4129179946789868" height="0.703664654666377"/></g></g></g><g class="axis"><g class="ticks"><g class="tickglyph"><g fill="rgb(94%, 94%, 94%)" stroke="rgb(94%, 94%, 94%)" stroke-width="4.0e-3" fill-opacity="0.4" stroke-opacity="0.4"><polyline points="-0.48519024834814295,0.32607163507237513
-0.48519024834814295,0.2960716350723751"/><polyline points="-0.3997493734335839,0.32607163507237513
-0.3997493734335839,0.2960716350723751"/><polyline points="-0.31430849851902476,0.32607163507237513
-0.31430849851902476,0.2960716350723751"/><polyline points="-0.22886762360446566,0.32607163507237513
-0.22886762360446566,0.2960716350723751"/><polyline points="-0.14342674868990657,0.32607163507237513
-0.14342674868990657,0.2960716350723751"/><polyline points="-5.798587377534736e-2,0.32607163507237513
-5.798587377534736e-2,0.2960716350723751"/><polyline points="2.745500113921162e-2,0.32607163507237513
2.745500113921162e-2,0.2960716350723751"/><polyline points="0.11289587605377083,0.32607163507237513
0.11289587605377083,0.2960716350723751"/><polyline points="0.1983367509683298,0.32607163507237513
0.1983367509683298,0.2960716350723751"/><polyline points="0.283777625882889,0.32607163507237513
0.283777625882889,0.2960716350723751"/><polyline points="0.36921850079744845,0.32607163507237513
0.36921850079744845,0.2960716350723751"/><polyline points="0.4546593757120072,0.32607163507237513
0.4546593757120072,0.2960716350723751"/><polyline points="0.5401002506265664,0.32607163507237513
0.5401002506265664,0.2960716350723751"/><polyline points="0.6255411255411252,0.32607163507237513
0.6255411255411252,0.2960716350723751"/></g></g><g class="ticktext"><g fill="rgb(94%, 94%, 94%)" stroke="none" stroke-width="0.0" font-size="3.987240829346092e-2" fill-opacity="1.0" text-anchor="end"><text x="-0.48519024834814295" y="0.355576321896394" transform="rotate(-45.0, -0.48519024834814295, 0.355576321896394)">unders</text><text x="-0.3997493734335839" y="0.355576321896394" transform="rotate(-45.0, -0.3997493734335839, 0.355576321896394)">-2.8</text><text x="-0.31430849851902476" y="0.355576321896394" transform="rotate(-45.0, -0.31430849851902476, 0.355576321896394)">-2.2</text><text x="-0.22886762360446566" y="0.355576321896394" transform="rotate(-45.0, -0.22886762360446566, 0.355576321896394)">-1.8</text><text x="-0.14342674868990657" y="0.355576321896394" transform="rotate(-45.0, -0.14342674868990657, 0.355576321896394)">-1.2</text><text x="-5.798587377534736e-2" y="0.355576321896394" transform="rotate(-45.0, -5.798587377534736e-2, 0.355576321896394)">-0.75</text><text x="2.745500113921162e-2" y="0.355576321896394" transform="rotate(-45.0, 2.745500113921162e-2, 0.355576321896394)">-0.25</text><text x="0.11289587605377083" y="0.355576321896394" transform="rotate(-45.0, 0.11289587605377083, 0.355576321896394)">0.25</text><text x="0.1983367509683298" y="0.355576321896394" transform="rotate(-45.0, 0.1983367509683298, 0.355576321896394)">0.75</text><text x="0.283777625882889" y="0.355576321896394" transform="rotate(-45.0, 0.283777625882889, 0.355576321896394)">1.2</text><text x="0.36921850079744845" y="0.355576321896394" transform="rotate(-45.0, 0.36921850079744845, 0.355576321896394)">1.8</text><text x="0.4546593757120072" y="0.355576321896394" transform="rotate(-45.0, 0.4546593757120072, 0.355576321896394)">2.2</text><text x="0.5401002506265664" y="0.355576321896394" transform="rotate(-45.0, 0.5401002506265664, 0.355576321896394)">2.8</text><text x="0.6255411255411252" y="0.355576321896394" transform="rotate(-45.0, 0.6255411255411252, 0.355576321896394)">overs</text></g></g></g><g class="axisbar"><g fill="rgb(94%, 94%, 94%)" stroke="rgb(0%, 0%, 0%)" stroke-width="0.0" fill-opacity="0.4" stroke-opacity="0.0"><rect x="-0.529505582137161" width="1.1993620414673045" y="0.29705441087583373" height="2.803444839308278e-3"/></g></g></g><g class="legend"></g><g class="frame"><g fill="rgb(100%, 100%, 100%)" stroke="rgb(0%, 0%, 0%)" stroke-width="0.0" fill-opacity="2.0e-2" stroke-opacity="0.0"><rect x="-0.75" width="1.4999999999999998" y="-0.5" height="1.0"/></g></g></g></svg>