<svg xmlns="http://www.w3.org/2000/svg" width="448.427917741401" xmlns:xlink="http://www.w3.org/1999/xlink" viewBox="-0.7229074234725493 -0.48989615519617746 1.4729074234725494 0.9853807257749356" height="300.0"><style>svg {
  color-scheme: light dark;
}
{
  .canvas g, .title g, .axisbar g, .ticktext g, .tickglyph g, .ticklines g, .legendContent g text {
    fill: #0d0d0d;
  }
  .ticklines g, .tickglyph g, .legendBorder g {
    stroke: #0d0d0d;
  }
}
@media (prefers-color-scheme:dark) {
  .canvas g, .title g, .axisbar g, .ticktext g, .tickglyph g, .ticklines g, .legendContent g text {
    fill: #f0f0f0;
  }
  .ticklines g, .tickglyph g, .legendBorder g {
    stroke: #f0f0f0;
  }
}</style><g class="chart"><g><g fill="none" stroke="rgb(46%, 46%, 46%)" stroke-width="1.0e-2" stroke-opacity="0.5"><polyline points="-0.6103730325938778,-3.549760383386591e-2
-0.5998884620151196,2.5192720997260776e-3
-0.5894038914363613,1.8266377710475068e-2
-0.5789193208576031,3.0349556828157764e-2
-0.5684347502788449,4.0536148033317954e-2
-0.5579501797000868,4.951071504582144e-2
-0.5474656091213286,5.76243438181282e-2
-0.5369810385425703,6.50855955100148e-2
-0.5264964679638121,7.20303592548161e-2
-0.5160118973850539,7.855302396690989e-2
-0.5055273268062956,8.472231364032479e-2
-0.49504275622753746,9.059010933935058e-2
-0.4845581856487793,9.61967174901815e-2
-0.474073615070021,0.10157419167765275
-0.4635890444912629,0.10674852082512681
-0.45310447391250464,0.11174112353176913
-0.44261990333374646,0.11656989990050176
-0.43213533275498817,0.12124999119633556
-0.42165076217623,0.12579434079915713
-0.4111661915974718,0.13021411650978482
-0.4006816210187136,0.13451903392550874
-0.3901970504399554,0.13871760781756404
-0.37971247986119716,0.14281735018430575
-0.3692279092824389,0.14682492818632287
-0.35874333870368075,0.15074629147012225
-0.34825876812492257,0.1545867758340937
-0.33777419754616433,0.15835118839735518
-0.3272896269674061,0.16204387815220517
-0.3168050563886479,0.16566879485389546
-0.30632048580988974,0.169229538520912
-0.29583591523113156,0.17272940131316972
-0.2853513446523733,0.1761714031753175
-0.2748667740736151,0.1795583223434981
-0.2643822034948569,0.1828927215923168
-0.2538976329160986,0.18617697092721053
-0.24341306233734045,0.18941326729346358
-0.23292849175858216,0.19260365176768562
-0.22244392117982403,0.19575002461398322
-0.2119593506010658,0.19885415852030242
-0.20147478002230762,0.2019177102767759
-0.19099020944354933,0.20494223111451537
-0.1805056388647912,0.2079291758879941
-0.17002106828603292,0.21087991125528555
-0.15953649770727474,0.21379572298667937
-0.14905192712851656,0.21667782251256723
-0.13856735654975827,0.21952735280519603
-0.1280827859710001,0.222345393675288
-0.11759821539224191,0.2251329665531393
-0.10711364481348373,0.2278910388142289
-9.662907423472555e-2,0.2306205277012775
-8.614450365596737e-2,0.2333223038878391
-7.565993307720909e-2,0.23599719472267391
-6.51753624984509e-2,0.23864598718917124
-5.4690791919692616e-2,0.24126943060982717
-4.420622134093444e-2,0.24386823912211636
-3.372165076217626e-2,0.24644309394894198
-2.323708018341797e-2,0.24899464548411948
-1.275250960465979e-2,0.2515235152109822
-2.267939025901722e-3,0.25403029747014827
8.216631552856679e-3,0.256515561090692
1.8701202131614747e-2,0.25897985089740416
2.9185772710373037e-2,0.2614236891054539
3.9670343289131105e-2,0.26384757661256697
5.0154913867889506e-2,0.26625199419777623
6.0639484446647796e-2,0.26863740363486943
7.112405502540597e-2,0.2710042487278402
8.160862560416393e-2,0.2733529562749154
9.209319618292222e-2,0.2756839369670917
0.10257776676168051,0.27799758622653703
0.11306233734043891,0.28029428498970455
0.12354690791919687,0.28257440043955073
0.13403147849795516,0.2848382866908433
0.14451604907671345,0.2870862854321802
0.1550006196554714,0.2893187265280154
0.1654851902342298,0.2915359285836966
0.1759697608129881,0.29373819947625257
0.1864543313917464,0.29592583685343543
0.19693890197050434,0.2980991286033078
0.20742347254926263,0.3002583532964721
0.2179080431280208,0.3024037806028651
0.22839261370677932,0.30453567168488327
0.23887718428553728,0.30665427956846136
0.24936175486429546,0.30875984949359636
0.25984632544305375,0.31085261924569274
0.2703308960218117,0.312932819468994
0.28081546660057,0.31500067396327275
0.2913000371793284,0.31705639996485757
0.30178460775808635,0.31910020841299563
0.31226917833684464,0.3211323042024773
0.32275374891560293,0.323152886423377
0.3332383194943612,0.32516214858870596
0.3437228900731194,0.32716027885071186
0.3542074606518776,0.3291474602065117
0.36469203123063576,0.33112387069369253
0.37517660180939416,0.33308968357647234
0.3856611723881521,0.33504506752297186
0.3961457429669103,0.33699018677411036
0.4066303135456687,0.33892520130460546
0.41711488412442665,0.34085026697652115
0.42759945470318506,0.3427655356857837
0.43808402528194323,0.3446711555020532"/></g><g fill="none" stroke="rgb(49%, 47%, 25%)" stroke-width="1.0e-2" stroke-opacity="0.5"><polyline points="-0.6103730325938778,-3.549760383386591e-2
-0.5998884620151196,-1.4554653979516552e-2
-0.5894038914363613,-5.879800113745337e-3
-0.5789193208576031,7.766493742344394e-4
-0.5684347502788449,6.388295874832806e-3
-0.5579501797000868,1.1332255689828485e-2
-0.5474656091213286,1.5801937017985268e-2
-0.5369810385425703,1.9912233200838958e-2
-0.5264964679638121,2.373800360637507e-2
-0.5160118973850539,2.7331245729182108e-2
-0.5055273268062956,3.072981862856977e-2
-0.49504275622753746,3.396230283623913e-2
-0.4845581856487793,3.705090258233473e-2
-0.474073615070021,4.0013275725461706e-2
-0.4635890444912629,4.28637391894966e-2
-0.45310447391250464,4.561409217248619e-2
-0.44261990333374646,4.827419558353152e-2
-0.43213533275498817,5.085239052763052e-2
-0.42165076217623,5.3355807326495586e-2
-0.4111661915974718,5.579059816088289e-2
-0.4006816210187136,5.816211521352305e-2
-0.3901970504399554,6.047504914935442e-2
-0.37971247986119716,6.27335382201662e-2
-0.3692279092824389,6.494125526878025e-2
-0.35874333870368075,6.71014778698365e-2
-0.34825876812492257,6.921714543788088e-2
-0.33777419754616433,7.129090614565664e-2
-0.3272896269674061,7.332515579043503e-2
-0.3168050563886479,7.532207023554371e-2
-0.30632048580988974,7.72836326793589e-2
-0.29583591523113156,7.921165672540081e-2
-0.2853513446523733,8.110780601771661e-2
-0.2748667740736151,8.29736110466161e-2
-0.2643822034948569,8.481048360774845e-2
-0.2538976329160986,8.661972930300255e-2
-0.24341306233734045,8.840255839791938e-2
-0.23292849175858216,9.016009529223029e-2
-0.22244392117982403,9.189338681408493e-2
-0.2119593506010658,9.360340951176233e-2
-0.20147478002230762,9.529107608710385e-2
-0.19099020944354933,9.695724109100529e-2
-0.1805056388647912,9.860270598185922e-2
-0.17002106828603292,0.1002282236319309
-0.15953649770727474,0.10183450235356956
-0.14905192712851656,0.10342220950634423
-0.13856735654975827,0.10499197473721755
-0.1280827859710001,0.1065443928983767
-0.11759821539224191,0.10808002668107264
-0.10711364481348373,0.10959940899853537
-9.662907423472555e-2,0.11110304514657954
-8.614450365596737e-2,0.11259141476673656
-7.565993307720909e-2,0.11406497363353196
-6.51753624984509e-2,0.11552415528478949
-5.4690791919692616e-2,0.11696937251148881
-4.420622134093444e-2,0.11840101872168773
-3.372165076217626e-2,0.11981946919128006
-2.323708018341797e-2,0.1212250822128591
-1.275250960465979e-2,0.1226182001526494
-2.267939025901722e-3,0.12399915042434434
8.216631552856679e-3,0.12536824638769511
1.8701202131614747e-2,0.12672578817883823
2.9185772710373037e-2,0.12807206347859545
3.9670343289131105e-2,0.12940734822431543
5.0154913867889506e-2,0.13073190727024847
6.0639484446647796e-2,0.13204599500092895
7.112405502540597e-2,0.13334985590159015
8.160862560416393e-2,0.13464372508923333
9.209319618292222e-2,0.13592782880761833
0.10257776676168051,0.1372023848891269
0.11306233734043891,0.13846760318616902
0.12354690791919687,0.1397236859745516
0.13403147849795516,0.14097082833100372
0.14451604907671345,0.14220921848685703
0.1550006196554714,0.14343903815969228
0.1654851902342298,0.1446604628646102
0.1759697608129881,0.14587366220663567
0.1864543313917464,0.14707880015563152
0.19693890197050434,0.14827603530498878
0.20742347254926263,0.14946552111524325
0.2179080431280208,0.15064740614368238
0.22839261370677932,0.151821834260912
0.23887718428553728,0.1529889448552783
0.24936175486429546,0.15414887302596636
0.25984632544305375,0.15530174976553368
0.2703308960218117,0.1564477021325747
0.28081546660057,0.15758685341516354
0.2913000371793284,0.1587193232856673
0.30178460775808635,0.15984522794748174
0.31226917833684464,0.16096468027419814
0.32275374891560293,0.16207778994167354
0.3332383194943612,0.16318466355344086
0.3437228900731194,0.1642854047598657
0.3542074606518776,0.16538011437142636
0.36469203123063576,0.16646889046646757
0.37517660180939416,0.16755182849375327
0.3856611723881521,0.16862902137012414
0.3961457429669103,0.1697005595735389
0.4066303135456687,0.17076653123176733
0.41711488412442665,0.1718270222069776
0.42759945470318506,0.17288211617644933
0.43808402528194323,0.1739318947096276"/></g><g fill="none" stroke="rgb(71%, 35%, -17%)" stroke-width="1.0e-2" stroke-opacity="0.5"><polyline points="-0.6103730325938778,-3.549760383386591e-2
-0.5998884620151196,-2.4475179613560383e-2
-0.5894038914363613,-1.9909542011280257e-2
-0.5789193208576031,-1.640620506171897e-2
-0.5684347502788449,-1.3452755393254967e-2
-0.5579501797000868,-1.0850714000422701e-2
-0.5474656091213286,-8.498288765622919e-3
-0.5369810385425703,-6.335010501882676e-3
-0.5264964679638121,-4.321480188694604e-3
-0.5160118973850539,-2.4303311729495514e-3
-0.5055273268062956,-6.416379610951206e-4
-0.49504275622753746,1.0596415850129826e-3
-0.4845581856487793,2.685193710427747e-3
-0.474073615070021,4.244311872361517e-3
-0.4635890444912629,5.744531170196021e-3
-0.45310447391250464,7.1920616062104425e-3
-0.44261990333374646,8.592093047355864e-3
-0.43213533275498817,9.949015476819867e-3
-0.42165076217623,1.1266581633891048e-2
-0.4111661915974718,1.2548029455280607e-2
-0.4006816210187136,1.3796175833020285e-2
-0.3901970504399554,1.5013489497598453e-2
-0.37971247986119716,1.6202148440514208e-2
-0.3692279092824389,1.7364085705200594e-2
-0.35874333870368075,1.8501026302620238e-2
-0.34825876812492257,1.961451726766139e-2
-0.33777419754616433,2.0705952352569335e-2
-0.3272896269674061,2.1776592482574464e-2
-0.3168050563886479,2.2827582830100612e-2
-0.30632048580988974,2.385996716662997e-2
-0.29583591523113156,2.4874700004659966e-2
-0.2853513446523733,2.5872656931945237e-2
-0.2748667740736151,2.6854643456476757e-2
-0.2643822034948569,2.7821402616396818e-2
-0.2538976329160986,2.8773621559312956e-2
-0.24341306233734045,2.9711937256630738e-2
-0.23292849175858216,3.063694148796675e-2
-0.22244392117982403,3.154918520645961e-2
-0.2119593506010658,3.244918237644939e-2
-0.20147478002230762,3.333741335943968e-2
-0.19099020944354933,3.4214327911675724e-2
-0.1805056388647912,3.508034784643882e-2
-0.17002106828603292,3.593586940578408e-2
-0.15953649770727474,3.678126537956444e-2
-0.14905192712851656,3.7616887003891764e-2
-0.13856735654975827,3.844306566646333e-2
-0.1280827859710001,3.9260114442237926e-2
-0.11759821539224191,4.006832947964306e-2
-0.10711364481348373,4.086799125472135e-2
-9.662907423472555e-2,4.165936570827222e-2
-8.614450365596737e-2,4.244270527906241e-2
-7.565993307720909e-2,4.321824984448264e-2
-6.51753624984509e-2,4.398622757858911e-2
-5.4690791919692616e-2,4.474685573622489e-2
-4.420622134093444e-2,4.550034137086334e-2
-3.372165076217626e-2,4.62468819928899e-2
-2.323708018341797e-2,4.6986666174257896e-2
-1.275250960465979e-2,4.771987410475853e-2
-2.267939025901722e-3,4.844667810455927e-2
8.216631552856679e-3,4.916724309713727e-2
1.8701202131614747e-2,4.9881727046286684e-2
2.9185772710373037e-2,5.059028136048044e-2
3.9670343289131105e-2,5.129305126751771e-2
5.0154913867889506e-2,5.199017616208379e-2
6.0639484446647796e-2,5.2681789928577694e-2
7.112405502540597e-2,5.336802124132528e-2
8.160862560416393e-2,5.404899384408518e-2
9.209319618292222e-2,5.472482681056534e-2
0.10257776676168051,5.539563478750564e-2
0.11306233734043891,5.6061528221729495e-2
0.12354690791919687,5.672261357244002e-2
0.13403147849795516,5.737899350991443e-2
0.14451604907671345,5.803076710164795e-2
0.1550006196554714,5.8678029986902525e-2
0.1654851902342298,5.932087454053031e-2
0.1759697608129881,5.9959390026868176e-2
0.1864543313917464,6.0593662744427235e-2
0.19693890197050434,6.1223776162042776e-2
0.20742347254926263,6.1849811047091974e-2
0.2179080431280208,6.2471845586337116e-2
0.22839261370677932,6.308995549990648e-2
0.23887718428553728,6.370421414888316e-2
0.24936175486429546,6.431469263693396e-2
0.25984632544305375,6.492145990637826e-2
0.2703308960218117,6.552458282906276e-2
0.28081546660057,6.612412629238207e-2
0.2913000371793284,6.672015328075853e-2
0.30178460775808635,6.731272495287e-2
0.31226917833684464,6.790190071489444e-2
0.32275374891560293,6.848773829001942e-2
0.3332383194943612,6.90702937844464e-2
0.3437228900731194,6.964962175010392e-2
0.3542074606518776,7.02257752442671e-2
0.36469203123063576,7.079880588626997e-2
0.37517660180939416,7.136876391147928e-2
0.3856611723881521,7.193569822269258e-2
0.3961457429669103,7.249965643910633e-2
0.4066303135456687,7.306068494299578e-2
0.41711488412442665,7.361882892423366e-2
0.42759945470318506,7.417413242277066e-2
0.43808402528194323,7.472663836918864e-2"/></g><g fill="none" stroke="rgb(85%, 0%, 30%)" stroke-width="1.0e-2" stroke-opacity="0.5"><polyline points="-0.6103730325938778,-3.549760383386591e-2
-0.5998884620151196,-3.549760383386591e-2
-0.5894038914363613,-3.549760383386591e-2
-0.5789193208576031,-3.549760383386591e-2
-0.5684347502788449,-3.549760383386591e-2
-0.5579501797000868,-3.549760383386591e-2
-0.5474656091213286,-3.549760383386591e-2
-0.5369810385425703,-3.549760383386591e-2
-0.5264964679638121,-3.549760383386591e-2
-0.5160118973850539,-3.549760383386591e-2
-0.5055273268062956,-3.549760383386591e-2
-0.49504275622753746,-3.549760383386591e-2
-0.4845581856487793,-3.549760383386591e-2
-0.474073615070021,-3.549760383386591e-2
-0.4635890444912629,-3.549760383386591e-2
-0.45310447391250464,-3.549760383386591e-2
-0.44261990333374646,-3.549760383386591e-2
-0.43213533275498817,-3.549760383386591e-2
-0.42165076217623,-3.549760383386591e-2
-0.4111661915974718,-3.549760383386591e-2
-0.4006816210187136,-3.549760383386591e-2
-0.3901970504399554,-3.549760383386591e-2
-0.37971247986119716,-3.549760383386591e-2
-0.3692279092824389,-3.549760383386591e-2
-0.35874333870368075,-3.549760383386591e-2
-0.34825876812492257,-3.549760383386591e-2
-0.33777419754616433,-3.549760383386591e-2
-0.3272896269674061,-3.549760383386591e-2
-0.3168050563886479,-3.549760383386591e-2
-0.30632048580988974,-3.549760383386591e-2
-0.29583591523113156,-3.549760383386591e-2
-0.2853513446523733,-3.549760383386591e-2
-0.2748667740736151,-3.549760383386591e-2
-0.2643822034948569,-3.549760383386591e-2
-0.2538976329160986,-3.549760383386591e-2
-0.24341306233734045,-3.549760383386591e-2
-0.23292849175858216,-3.549760383386591e-2
-0.22244392117982403,-3.549760383386591e-2
-0.2119593506010658,-3.549760383386591e-2
-0.20147478002230762,-3.549760383386591e-2
-0.19099020944354933,-3.549760383386591e-2
-0.1805056388647912,-3.549760383386591e-2
-0.17002106828603292,-3.549760383386591e-2
-0.15953649770727474,-3.549760383386591e-2
-0.14905192712851656,-3.549760383386591e-2
-0.13856735654975827,-3.549760383386591e-2
-0.1280827859710001,-3.549760383386591e-2
-0.11759821539224191,-3.549760383386591e-2
-0.10711364481348373,-3.549760383386591e-2
-9.662907423472555e-2,-3.549760383386591e-2
-8.614450365596737e-2,-3.549760383386591e-2
-7.565993307720909e-2,-3.549760383386591e-2
-6.51753624984509e-2,-3.549760383386591e-2
-5.4690791919692616e-2,-3.549760383386591e-2
-4.420622134093444e-2,-3.549760383386591e-2
-3.372165076217626e-2,-3.549760383386591e-2
-2.323708018341797e-2,-3.549760383386591e-2
-1.275250960465979e-2,-3.549760383386591e-2
-2.267939025901722e-3,-3.549760383386591e-2
8.216631552856679e-3,-3.549760383386591e-2
1.8701202131614747e-2,-3.549760383386591e-2
2.9185772710373037e-2,-3.549760383386591e-2
3.9670343289131105e-2,-3.549760383386591e-2
5.0154913867889506e-2,-3.549760383386591e-2
6.0639484446647796e-2,-3.549760383386591e-2
7.112405502540597e-2,-3.549760383386591e-2
8.160862560416393e-2,-3.549760383386591e-2
9.209319618292222e-2,-3.549760383386591e-2
0.10257776676168051,-3.549760383386591e-2
0.11306233734043891,-3.549760383386591e-2
0.12354690791919687,-3.549760383386591e-2
0.13403147849795516,-3.549760383386591e-2
0.14451604907671345,-3.549760383386591e-2
0.1550006196554714,-3.549760383386591e-2
0.1654851902342298,-3.549760383386591e-2
0.1759697608129881,-3.549760383386591e-2
0.1864543313917464,-3.549760383386591e-2
0.19693890197050434,-3.549760383386591e-2
0.20742347254926263,-3.549760383386591e-2
0.2179080431280208,-3.549760383386591e-2
0.22839261370677932,-3.549760383386591e-2
0.23887718428553728,-3.549760383386591e-2
0.24936175486429546,-3.549760383386591e-2
0.25984632544305375,-3.549760383386591e-2
0.2703308960218117,-3.549760383386591e-2
0.28081546660057,-3.549760383386591e-2
0.2913000371793284,-3.549760383386591e-2
0.30178460775808635,-3.549760383386591e-2
0.31226917833684464,-3.549760383386591e-2
0.32275374891560293,-3.549760383386591e-2
0.3332383194943612,-3.549760383386591e-2
0.3437228900731194,-3.549760383386591e-2
0.3542074606518776,-3.549760383386591e-2
0.36469203123063576,-3.549760383386591e-2
0.37517660180939416,-3.549760383386591e-2
0.3856611723881521,-3.549760383386591e-2
0.3961457429669103,-3.549760383386591e-2
0.4066303135456687,-3.549760383386591e-2
0.41711488412442665,-3.549760383386591e-2
0.42759945470318506,-3.549760383386591e-2
0.43808402528194323,-3.549760383386591e-2"/></g><g fill="none" stroke="rgb(71%, 35%, -17%)" stroke-width="1.0e-2" stroke-opacity="0.5"><polyline points="-0.6103730325938778,-3.549760383386591e-2
-0.5998884620151196,-4.6520028054171325e-2
-0.5894038914363613,-5.108566565645145e-2
-0.5789193208576031,-5.458900260601263e-2
-0.5684347502788449,-5.754245227447685e-2
-0.5579501797000868,-6.0144493667308896e-2
-0.5474656091213286,-6.2496918902108956e-2
-0.5369810385425703,-6.466019716584903e-2
-0.5264964679638121,-6.66737274790371e-2
-0.5160118973850539,-6.856487649478216e-2
-0.5055273268062956,-7.035356970663664e-2
-0.49504275622753746,-7.205484925274475e-2
-0.4845581856487793,-7.368040137815934e-2
-0.474073615070021,-7.523951954009334e-2
-0.4635890444912629,-7.673973883792773e-2
-0.45310447391250464,-7.818726927394204e-2
-0.44261990333374646,-7.958730071508768e-2
-0.43213533275498817,-8.094422314455163e-2
-0.42165076217623,-8.226178930162276e-2
-0.4111661915974718,-8.354323712301237e-2
-0.4006816210187136,-8.479138350075188e-2
-0.3901970504399554,-8.600869716533022e-2
-0.37971247986119716,-8.719735610824597e-2
-0.3692279092824389,-8.835929337293225e-2
-0.35874333870368075,-8.9496233970352e-2
-0.34825876812492257,-9.06097249353931e-2
-0.33777419754616433,-9.170116002030104e-2
-0.3272896269674061,-9.277180015030617e-2
-0.3168050563886479,-9.382279049783226e-2
-0.30632048580988974,-9.485517483436168e-2
-0.29583591523113156,-9.586990767239179e-2
-0.2853513446523733,-9.6867864599677e-2
-0.2748667740736151,-9.784985112420852e-2
-0.2643822034948569,-9.881661028412847e-2
-0.2538976329160986,-9.976882922704466e-2
-0.24341306233734045,-0.1007071449243625
-0.23292849175858216,-0.10163214915569851
-0.22244392117982403,-0.10254439287419137
-0.2119593506010658,-0.10344439004418116
-0.20147478002230762,-0.10433262102717145
-0.19099020944354933,-0.10520953557940738
-0.1805056388647912,-0.10607555551417047
-0.17002106828603292,-0.1069310770735159
-0.15953649770727474,-0.1077764730472962
-0.14905192712851656,-0.10861209467162347
-0.13856735654975827,-0.10943827333419509
-0.1280827859710001,-0.11025532210996969
-0.11759821539224191,-0.11106353714737482
-0.10711364481348373,-0.11186319892245311
-9.662907423472555e-2,-0.11265457337600393
-8.614450365596737e-2,-0.11343791294679406
-7.565993307720909e-2,-0.11421345751221434
-6.51753624984509e-2,-0.11498143524632076
-5.4690791919692616e-2,-0.11574206340395654
-4.420622134093444e-2,-0.11649554903859505
-3.372165076217626e-2,-0.11724208966062166
-2.323708018341797e-2,-0.11798187384198955
-1.275250960465979e-2,-0.11871508177249024
-2.267939025901722e-3,-0.11944188577229098
8.216631552856679e-3,-0.12016245076486898
1.8701202131614747e-2,-0.12087693471401839
2.9185772710373037e-2,-0.12158548902821209
3.9670343289131105e-2,-0.12228825893524942
5.0154913867889506e-2,-0.1229853838298155
6.0639484446647796e-2,-0.12367699759630946
7.112405502540597e-2,-0.12436322890905704
8.160862560416393e-2,-0.12504420151181694
9.209319618292222e-2,-0.12572003447829705
0.10257776676168051,-0.12639084245523735
0.11306233734043891,-0.1270567358894612
0.12354690791919687,-0.12771782124017161
0.13403147849795516,-0.1283742011776462
0.14451604907671345,-0.12902597476937971
0.1550006196554714,-0.12967323765463434
0.1654851902342298,-0.13031608220826196
0.1759697608129881,-0.13095459769459983
0.1864543313917464,-0.13158887041215894
0.19693890197050434,-0.13221898382977448
0.20742347254926263,-0.1328450187148238
0.2179080431280208,-0.13346705325406882
0.22839261370677932,-0.1340851631676383
0.23887718428553728,-0.13469942181661487
0.24936175486429546,-0.13530990030466572
0.25984632544305375,-0.13591666757411003
0.2703308960218117,-0.13651979049679464
0.28081546660057,-0.1371193339601139
0.2913000371793284,-0.13771536094849024
0.30178460775808635,-0.1383079326206016
0.31226917833684464,-0.13889710838262614
0.32275374891560293,-0.13948294595775101
0.3332383194943612,-0.1400655014521781
0.3437228900731194,-0.14064482941783563
0.3542074606518776,-0.1412209829119988
0.36469203123063576,-0.14179401355400156
0.37517660180939416,-0.1423639715792111
0.3856611723881521,-0.14293090589042423
0.3961457429669103,-0.1434948641068381
0.4066303135456687,-0.1440558926107275
0.41711488412442665,-0.14461403659196537
0.42759945470318506,-0.1451693400905023
0.43808402528194323,-0.1457218460369203"/></g><g fill="none" stroke="rgb(49%, 47%, 25%)" stroke-width="1.0e-2" stroke-opacity="0.5"><polyline points="-0.6103730325938778,-3.549760383386591e-2
-0.5998884620151196,-5.644055368821521e-2
-0.5894038914363613,-6.511540755398637e-2
-0.5789193208576031,-7.17718570419662e-2
-0.5684347502788449,-7.738350354256451e-2
-0.5579501797000868,-8.232746335756036e-2
-0.5474656091213286,-8.679714468571709e-2
-0.5369810385425703,-9.090744086857061e-2
-0.5264964679638121,-9.473321127410683e-2
-0.5160118973850539,-9.832645339691393e-2
-0.5055273268062956,-0.10172502629630142
-0.49504275622753746,-0.10495751050397095
-0.4845581856487793,-0.1080461102500665
-0.474073615070021,-0.11100848339319358
-0.4635890444912629,-0.11385894685722842
-0.45310447391250464,-0.11660929984021795
-0.44261990333374646,-0.11926940325126323
-0.43213533275498817,-0.12184759819536217
-0.42165076217623,-0.1243510149942273
-0.4111661915974718,-0.12678580582861465
-0.4006816210187136,-0.1291573228812548
-0.3901970504399554,-0.13147025681708613
-0.37971247986119716,-0.13372874588789785
-0.3692279092824389,-0.13593646293651207
-0.35874333870368075,-0.13809668553756826
-0.34825876812492257,-0.14021235310561264
-0.33777419754616433,-0.14228611381338852
-0.3272896269674061,-0.14432036345816668
-0.3168050563886479,-0.14631727790327542
-0.30632048580988974,-0.1482788403470907
-0.29583591523113156,-0.15020686439313258
-0.2853513446523733,-0.15210301368544843
-0.2748667740736151,-0.15396881871434787
-0.2643822034948569,-0.15580569127548027
-0.2538976329160986,-0.15761493697073425
-0.24341306233734045,-0.15939776606565115
-0.23292849175858216,-0.16115530295996194
-0.22244392117982403,-0.16288859448181658
-0.2119593506010658,-0.1645986171794942
-0.20147478002230762,-0.16628628375483556
-0.19099020944354933,-0.16795244875873705
-0.1805056388647912,-0.16959791364959087
-0.17002106828603292,-0.17122343129966267
-0.15953649770727474,-0.17282971002130132
-0.14905192712851656,-0.1744174171740761
-0.13856735654975827,-0.17598718240494926
-0.1280827859710001,-0.1775396005661085
-0.11759821539224191,-0.17907523434880435
-0.10711364481348373,-0.18059461666626708
-9.662907423472555e-2,-0.18209825281431136
-8.614450365596737e-2,-0.18358662243446822
-7.565993307720909e-2,-0.18506018130126356
-6.51753624984509e-2,-0.18651936295252136
-5.4690791919692616e-2,-0.18796458017922069
-4.420622134093444e-2,-0.18939622638941955
-3.372165076217626e-2,-0.19081467685901177
-2.323708018341797e-2,-0.19222028988059092
-1.275250960465979e-2,-0.19361340782038117
-2.267939025901722e-3,-0.19499435809207621
8.216631552856679e-3,-0.19636345405542688
1.8701202131614747e-2,-0.19772099584657
2.9185772710373037e-2,-0.19906727114632727
3.9670343289131105e-2,-0.20040255589204714
5.0154913867889506e-2,-0.20172711493798023
6.0639484446647796e-2,-0.20304120266866066
7.112405502540597e-2,-0.20434506356932192
8.160862560416393e-2,-0.2056389327569652
9.209319618292222e-2,-0.20692303647535015
0.10257776676168051,-0.20819759255685855
0.11306233734043891,-0.20946281085390084
0.12354690791919687,-0.21071889364228324
0.13403147849795516,-0.21196603599873554
0.14451604907671345,-0.21320442615458868
0.1550006196554714,-0.21443424582742399
0.1654851902342298,-0.21565567053234203
0.1759697608129881,-0.21686886987436738
0.1864543313917464,-0.21807400782336317
0.19693890197050434,-0.2192712429727206
0.20742347254926263,-0.22046072878297496
0.2179080431280208,-0.22164261381141426
0.22839261370677932,-0.22281704192864382
0.23887718428553728,-0.22398415252301007
0.24936175486429546,-0.22514408069369818
0.25984632544305375,-0.2262969574332655
0.2703308960218117,-0.22744290980030646
0.28081546660057,-0.22858206108289536
0.2913000371793284,-0.2297145309533991
0.30178460775808635,-0.2308404356152135
0.31226917833684464,-0.2319598879419298
0.32275374891560293,-0.23307299760940525
0.3332383194943612,-0.23417987122117256
0.3437228900731194,-0.23528061242759757
0.3542074606518776,-0.23637532203915823
0.36469203123063576,-0.23746409813419933
0.37517660180939416,-0.2385470361614851
0.3856611723881521,-0.23962422903785585
0.3961457429669103,-0.24069576724127073
0.4066303135456687,-0.24176173889949915
0.41711488412442665,-0.24282222987470936
0.42759945470318506,-0.24387732384418115
0.43808402528194323,-0.24492710237735948"/></g><g fill="none" stroke="rgb(46%, 46%, 46%)" stroke-width="1.0e-2" stroke-opacity="0.5"><polyline points="-0.6103730325938778,-3.549760383386591e-2
-0.5998884620151196,-7.351447976745773e-2
-0.5894038914363613,-8.926158537820683e-2
-0.5789193208576031,-0.10134476449588947
-0.5684347502788449,-0.11153135570104966
-0.5579501797000868,-0.12050592271355309
-0.5474656091213286,-0.1286195514858598
-0.5369810385425703,-0.1360808031777465
-0.5264964679638121,-0.14302556692254786
-0.5160118973850539,-0.1495482316346416
-0.5055273268062956,-0.1557175213080565
-0.49504275622753746,-0.16158531700708234
-0.4845581856487793,-0.16719192515791326
-0.474073615070021,-0.1725693993453844
-0.4635890444912629,-0.17774372849285847
-0.45310447391250464,-0.18273633119950083
-0.44261990333374646,-0.18756510756823352
-0.43213533275498817,-0.19224519886406732
-0.42165076217623,-0.1967895484668889
-0.4111661915974718,-0.20120932417751647
-0.4006816210187136,-0.2055142415932405
-0.3901970504399554,-0.20971281548529586
-0.37971247986119716,-0.21381255785203745
-0.3692279092824389,-0.2178201358540547
-0.35874333870368075,-0.2217414991378539
-0.34825876812492257,-0.22558198350182534
-0.33777419754616433,-0.2293463960650869
-0.3272896269674061,-0.23303908581993682
-0.3168050563886479,-0.23666400252162711
-0.30632048580988974,-0.24022474618864365
-0.29583591523113156,-0.24372460898090142
-0.2853513446523733,-0.24716661084304925
-0.2748667740736151,-0.25055353001122993
-0.2643822034948569,-0.25388792926004844
-0.2538976329160986,-0.25717217859494224
-0.24341306233734045,-0.26040847496119524
-0.23292849175858216,-0.2635988594354173
-0.22244392117982403,-0.2667452322817149
-0.2119593506010658,-0.2698493661880341
-0.20147478002230762,-0.27291291794450767
-0.19099020944354933,-0.27593743878224697
-0.1805056388647912,-0.2789243835557257
-0.17002106828603292,-0.2818751189230173
-0.15953649770727474,-0.28479093065441097
-0.14905192712851656,-0.2876730301802989
-0.13856735654975827,-0.2905225604729278
-0.1280827859710001,-0.29334060134301965
-0.11759821539224191,-0.296128174220871
-0.10711364481348373,-0.2988862464819606
-9.662907423472555e-2,-0.3016157353690092
-8.614450365596737e-2,-0.30431751155557074
-7.565993307720909e-2,-0.3069924023904056
-6.51753624984509e-2,-0.3096411948569029
-5.4690791919692616e-2,-0.3122646382775589
-4.420622134093444e-2,-0.314863446789848
-3.372165076217626e-2,-0.31743830161667363
-2.323708018341797e-2,-0.31998985315185113
-1.275250960465979e-2,-0.32251872287871386
-2.267939025901722e-3,-0.32502550513788
8.216631552856679e-3,-0.32751076875842366
1.8701202131614747e-2,-0.32997505856513587
2.9185772710373037e-2,-0.3324188967731855
3.9670343289131105e-2,-0.33484278428029857
5.0154913867889506e-2,-0.33724720186550794
6.0639484446647796e-2,-0.33963261130260114
7.112405502540597e-2,-0.3419994563955717
8.160862560416393e-2,-0.344348163942647
9.209319618292222e-2,-0.3466791446348234
0.10257776676168051,-0.34899279389426874
0.11306233734043891,-0.35128949265743625
0.12354690791919687,-0.35356960810728255
0.13403147849795516,-0.3558334943585749
0.14451604907671345,-0.3580814930999118
0.1550006196554714,-0.360313934195747
0.1654851902342298,-0.3625311362514282
0.1759697608129881,-0.36473340714398417
0.1864543313917464,-0.36692104452116703
0.19693890197050434,-0.3690943362710395
0.20742347254926263,-0.3712535609642037
0.2179080431280208,-0.3733989882705968
0.22839261370677932,-0.37553087935261487
0.23887718428553728,-0.37764948723619296
0.24936175486429546,-0.37975505716132796
0.25984632544305375,-0.38184782691342434
0.2703308960218117,-0.3839280271367256
0.28081546660057,-0.3859958816310045
0.2913000371793284,-0.3880516076325893
0.30178460775808635,-0.3900954160807273
0.31226917833684464,-0.3921275118702088
0.32275374891560293,-0.3941480940911086
0.3332383194943612,-0.39615735625643766
0.3437228900731194,-0.39815548651844357
0.3542074606518776,-0.40014266787424346
0.36469203123063576,-0.40211907836142413
0.37517660180939416,-0.404084891244204
0.3856611723881521,-0.4060402751907034
0.3961457429669103,-0.4079853944418419
0.4066303135456687,-0.40992040897233695
0.41711488412442665,-0.4118454746442529
0.42759945470318506,-0.4137607433535154
0.43808402528194323,-0.4156663631697848"/></g></g></g><g class="hud"><g class="frame"><g fill="rgb(94%, 94%, 94%)" stroke="rgb(94%, 94%, 94%)" stroke-width="0.0" fill-opacity="2.0e-2" stroke-opacity="0.0"><rect x="-0.6138678894534638" width="1.0554467715949931" y="-0.47399600638977646" height="0.8769968051118211"/></g></g><g class="axis"><g class="ticks"><g class="tickglyph"><g fill="rgb(94%, 94%, 94%)" stroke="rgb(94%, 94%, 94%)" stroke-width="4.0e-3" fill-opacity="0.4" stroke-opacity="0.4"><g transform="rotate(-90.0, -0.6348370306109803, 0.4030007987220447)"><polyline points="-0.6348370306109803,0.4180007987220447
-0.6348370306109803,0.3880007987220447"/></g><g transform="rotate(-90.0, -0.6348370306109803, 0.329917731629393)"><polyline points="-0.6348370306109803,0.344917731629393
-0.6348370306109803,0.31491773162939296"/></g><g transform="rotate(-90.0, -0.6348370306109803, 0.2568346645367412)"><polyline points="-0.6348370306109803,0.2718346645367412
-0.6348370306109803,0.24183466453674118"/></g><g transform="rotate(-90.0, -0.6348370306109803, 0.18375159744408942)"><polyline points="-0.6348370306109803,0.19875159744408943
-0.6348370306109803,0.1687515974440894"/></g><g transform="rotate(-90.0, -0.6348370306109803, 0.11066853035143764)"><polyline points="-0.6348370306109803,0.12566853035143766
-0.6348370306109803,9.566853035143764e-2"/></g><g transform="rotate(-90.0, -0.6348370306109803, 3.758546325878592e-2)"><polyline points="-0.6348370306109803,5.258546325878592e-2
-0.6348370306109803,2.2585463258785923e-2"/></g><g transform="rotate(-90.0, -0.6348370306109803, -3.549760383386591e-2)"><polyline points="-0.6348370306109803,-2.049760383386591e-2
-0.6348370306109803,-5.049760383386591e-2"/></g><g transform="rotate(-90.0, -0.6348370306109803, -0.10858067092651758)"><polyline points="-0.6348370306109803,-9.358067092651758e-2
-0.6348370306109803,-0.12358067092651757"/></g><g transform="rotate(-90.0, -0.6348370306109803, -0.18166373801916935)"><polyline points="-0.6348370306109803,-0.16666373801916934
-0.6348370306109803,-0.19666373801916937"/></g><g transform="rotate(-90.0, -0.6348370306109803, -0.25474680511182124)"><polyline points="-0.6348370306109803,-0.23974680511182123
-0.6348370306109803,-0.26974680511182125"/></g><g transform="rotate(-90.0, -0.6348370306109803, -0.3278298722044728)"><polyline points="-0.6348370306109803,-0.3128298722044728
-0.6348370306109803,-0.3428298722044728"/></g><g transform="rotate(-90.0, -0.6348370306109803, -0.4009129392971247)"><polyline points="-0.6348370306109803,-0.38591293929712467
-0.6348370306109803,-0.4159129392971247"/></g><g transform="rotate(-90.0, -0.6348370306109803, -0.47399600638977646)"><polyline points="-0.6348370306109803,-0.45899600638977645
-0.6348370306109803,-0.48899600638977647"/></g></g></g><g class="ticktext"><g fill="rgb(94%, 94%, 94%)" stroke="none" stroke-width="0.0" font-size="3.49485685958607e-2" fill-opacity="1.0" text-anchor="end"><text x="-0.66" y="0.4150595047923323">-6.0</text><text x="-0.66" y="0.34197643769968045">-5.0</text><text x="-0.66" y="0.2688933706070287">-4.0</text><text x="-0.66" y="0.19581030351437695">-3.0</text><text x="-0.66" y="0.12272723642172517">-2.0</text><text x="-0.66" y="4.964416932907345e-2">-1.0</text><text x="-0.66" y="-2.3438897763578326e-2">0.0</text><text x="-0.66" y="-9.652196485622999e-2">1.0</text><text x="-0.66" y="-0.16960503194888177">2.0</text><text x="-0.66" y="-0.24268809904153366">3.0</text><text x="-0.66" y="-0.3157711661341852">4.0</text><text x="-0.66" y="-0.3888542332268372">5.0</text><text x="-0.66" y="-0.4619373003194889">6.0</text></g></g><g class="ticklines"><g fill="none" stroke="rgb(94%, 94%, 94%)" stroke-width="5.0e-3" stroke-opacity="5.0e-2"><polyline points="-0.6103730325938778,0.4030007987220447
0.43808402528194323,0.4030007987220447"/><polyline points="-0.6103730325938778,0.329917731629393
0.43808402528194323,0.329917731629393"/><polyline points="-0.6103730325938778,0.2568346645367412
0.43808402528194323,0.2568346645367412"/><polyline points="-0.6103730325938778,0.18375159744408942
0.43808402528194323,0.18375159744408942"/><polyline points="-0.6103730325938778,0.11066853035143764
0.43808402528194323,0.11066853035143764"/><polyline points="-0.6103730325938778,3.758546325878592e-2
0.43808402528194323,3.758546325878592e-2"/><polyline points="-0.6103730325938778,-3.549760383386591e-2
0.43808402528194323,-3.549760383386591e-2"/><polyline points="-0.6103730325938778,-0.10858067092651758
0.43808402528194323,-0.10858067092651758"/><polyline points="-0.6103730325938778,-0.18166373801916935
0.43808402528194323,-0.18166373801916935"/><polyline points="-0.6103730325938778,-0.25474680511182124
0.43808402528194323,-0.25474680511182124"/><polyline points="-0.6103730325938778,-0.3278298722044728
0.43808402528194323,-0.3278298722044728"/><polyline points="-0.6103730325938778,-0.4009129392971247
0.43808402528194323,-0.4009129392971247"/><polyline points="-0.6103730325938778,-0.47399600638977646
0.43808402528194323,-0.47399600638977646"/></g></g></g><g class="axisbar"><g fill="rgb(94%, 94%, 94%)" stroke="rgb(0%, 0%, 0%)" stroke-width="0.0" fill-opacity="0.4" stroke-opacity="0.0"><rect x="-0.6236534886603049" width="2.7958854876688477e-3" y="-0.47575" height="0.8805047923322683"/></g></g></g><g class="axis"><g class="ticks"><g class="tickglyph"><g fill="rgb(94%, 94%, 94%)" stroke="rgb(94%, 94%, 94%)" stroke-width="4.0e-3" fill-opacity="0.4" stroke-opacity="0.4"><polyline points="-0.6103730325938778,0.44431070287539937
-0.6103730325938778,0.41431070287539934"/><polyline points="-0.5055273268062956,0.44431070287539937
-0.5055273268062956,0.41431070287539934"/><polyline points="-0.4006816210187136,0.44431070287539937
-0.4006816210187136,0.41431070287539934"/><polyline points="-0.29583591523113156,0.44431070287539937
-0.29583591523113156,0.41431070287539934"/><polyline points="-0.19099020944354933,0.44431070287539937
-0.19099020944354933,0.41431070287539934"/><polyline points="-8.614450365596737e-2,0.44431070287539937
-8.614450365596737e-2,0.41431070287539934"/><polyline points="1.8701202131614747e-2,0.44431070287539937
1.8701202131614747e-2,0.41431070287539934"/><polyline points="0.12354690791919687,0.44431070287539937
0.12354690791919687,0.41431070287539934"/><polyline points="0.22839261370677932,0.44431070287539937
0.22839261370677932,0.41431070287539934"/><polyline points="0.3332383194943612,0.44431070287539937
0.3332383194943612,0.41431070287539934"/><polyline points="0.43808402528194323,0.44431070287539937
0.43808402528194323,0.41431070287539934"/></g></g><g class="ticktext"><g fill="rgb(94%, 94%, 94%)" stroke="none" stroke-width="0.0" font-size="3.49485685958607e-2" fill-opacity="1.0" text-anchor="middle"><text x="-0.6103730325938778" y="0.485">0.0</text><text x="-0.5055273268062956" y="0.485">10</text><text x="-0.4006816210187136" y="0.485">20</text><text x="-0.29583591523113156" y="0.485">30</text><text x="-0.19099020944354933" y="0.485">40</text><text x="-8.614450365596737e-2" y="0.485">50</text><text x="1.8701202131614747e-2" y="0.485">60</text><text x="0.12354690791919687" y="0.485">70</text><text x="0.22839261370677932" y="0.485">80</text><text x="0.3332383194943612" y="0.485">90</text><text x="0.43808402528194323" y="0.485">100</text></g></g><g class="ticklines"><g fill="none" stroke="rgb(94%, 94%, 94%)" stroke-width="5.0e-3" stroke-opacity="5.0e-2"><polyline points="-0.6103730325938778,0.4030007987220447
-0.6103730325938778,-0.47399600638977646"/><polyline points="-0.5055273268062956,0.4030007987220447
-0.5055273268062956,-0.47399600638977646"/><polyline points="-0.4006816210187136,0.4030007987220447
-0.4006816210187136,-0.47399600638977646"/><polyline points="-0.29583591523113156,0.4030007987220447
-0.29583591523113156,-0.47399600638977646"/><polyline points="-0.19099020944354933,0.4030007987220447
-0.19099020944354933,-0.47399600638977646"/><polyline points="-8.614450365596737e-2,0.4030007987220447
-8.614450365596737e-2,-0.47399600638977646"/><polyline points="1.8701202131614747e-2,0.4030007987220447
1.8701202131614747e-2,-0.47399600638977646"/><polyline points="0.12354690791919687,0.4030007987220447
0.12354690791919687,-0.47399600638977646"/><polyline points="0.22839261370677932,0.4030007987220447
0.22839261370677932,-0.47399600638977646"/><polyline points="0.3332383194943612,0.4030007987220447
0.3332383194943612,-0.47399600638977646"/><polyline points="0.43808402528194323,0.4030007987220447
0.43808402528194323,-0.47399600638977646"/></g></g></g><g class="axisbar"><g fill="rgb(94%, 94%, 94%)" stroke="rgb(0%, 0%, 0%)" stroke-width="0.0" fill-opacity="0.4" stroke-opacity="0.0"><rect x="-0.6117709753377122" width="1.0512529433634898" y="0.41177076677316293" height="3.5079872204472617e-3"/></g></g></g><g class="legend"><g class="legendBorder"><g fill="rgb(94%, 94%, 94%)" stroke="rgb(94%, 94%, 94%)" stroke-width="2.5e-3" fill-opacity="0.0" stroke-opacity="1.0"><rect x="0.4966228776800098" width="0.24988226546040382" y="-0.398464656549521" height="0.4549420926517574"/></g></g><g class="legendContent"><g fill="rgb(94%, 94%, 94%)" stroke="none" stroke-width="0.0" font-size="1.747428429793035e-2" fill-opacity="1.0" text-anchor="start"><text x="0.5315714462758706" y="6.05011980830672e-3">0.99</text></g><g fill="none" stroke="rgb(46%, 46%, 46%)" stroke-width="1.0e-2" stroke-opacity="0.5"><polyline points="0.6032160118973849,5.688897763577727e-4
0.7080617176849672,5.688897763577727e-4"/></g><g fill="rgb(94%, 94%, 94%)" stroke="none" stroke-width="0.0" font-size="1.747428429793035e-2" fill-opacity="1.0" text-anchor="start"><text x="0.5315714462758706" y="-3.99922124600639e-2">0.9</text></g><g fill="none" stroke="rgb(49%, 47%, 25%)" stroke-width="1.0e-2" stroke-opacity="0.5"><polyline points="0.6032160118973849,-4.5473442492012905e-2
0.7080617176849672,-4.5473442492012905e-2"/></g><g fill="rgb(94%, 94%, 94%)" stroke="none" stroke-width="0.0" font-size="1.747428429793035e-2" fill-opacity="1.0" text-anchor="start"><text x="0.5315714462758706" y="-8.603454472843453e-2">0.75</text></g><g fill="none" stroke="rgb(71%, 35%, -17%)" stroke-width="1.0e-2" stroke-opacity="0.5"><polyline points="0.6032160118973849,-9.151577476038342e-2
0.7080617176849672,-9.151577476038342e-2"/></g><g fill="rgb(94%, 94%, 94%)" stroke="none" stroke-width="0.0" font-size="1.747428429793035e-2" fill-opacity="1.0" text-anchor="start"><text x="0.5315714462758706" y="-0.13207687699680504">0.5</text></g><g fill="none" stroke="rgb(85%, 0%, 30%)" stroke-width="1.0e-2" stroke-opacity="0.5"><polyline points="0.6032160118973849,-0.13755810702875415
0.7080617176849672,-0.13755810702875415"/></g><g fill="rgb(94%, 94%, 94%)" stroke="none" stroke-width="0.0" font-size="1.747428429793035e-2" fill-opacity="1.0" text-anchor="start"><text x="0.5315714462758706" y="-0.17811920926517577">0.25</text></g><g fill="none" stroke="rgb(71%, 35%, -17%)" stroke-width="1.0e-2" stroke-opacity="0.5"><polyline points="0.6032160118973849,-0.18360043929712466
0.7080617176849672,-0.18360043929712466"/></g><g fill="rgb(94%, 94%, 94%)" stroke="none" stroke-width="0.0" font-size="1.747428429793035e-2" fill-opacity="1.0" text-anchor="start"><text x="0.5315714462758706" y="-0.2241615415335464">0.1</text></g><g fill="none" stroke="rgb(49%, 47%, 25%)" stroke-width="1.0e-2" stroke-opacity="0.5"><polyline points="0.6032160118973849,-0.22964277156549529
0.7080617176849672,-0.22964277156549529"/></g><g fill="rgb(94%, 94%, 94%)" stroke="none" stroke-width="0.0" font-size="1.747428429793035e-2" fill-opacity="1.0" text-anchor="start"><text x="0.5315714462758706" y="-0.2702038738019171">1.0e-2</text></g><g fill="none" stroke="rgb(46%, 46%, 46%)" stroke-width="1.0e-2" stroke-opacity="0.5"><polyline points="0.6032160118973849,-0.2756851038338659
0.7080617176849672,-0.2756851038338659"/></g><g fill="rgb(94%, 94%, 94%)" stroke="none" stroke-width="0.0" font-size="1.747428429793035e-2" fill-opacity="1.0" text-anchor="start"><text x="0.5315714462758706" y="-0.31624620607028764">quantile</text></g></g></g></g></svg>